<svg xmlns="http://www.w3.org/2000/svg" xmlns:xlink="http://www.w3.org/1999/xlink" width="500" zoomAndPan="magnify" viewBox="0 0 375 374.999991" height="500" preserveAspectRatio="xMidYMid meet" version="1.0"><defs><g/></defs><g fill="#ffffff" fill-opacity="1"><g transform="translate(42.140627, 236.249984)"><g><path d="M 2.28125 -1.46875 C 1.832031 -1.5625 1.425781 -1.648438 1.0625 -1.734375 C 0.707031 -1.828125 0.398438 -2.097656 0.140625 -2.546875 C -0.304688 -3.265625 0.046875 -3.984375 1.203125 -4.703125 C 1.648438 -5.054688 2.140625 -5.390625 2.671875 -5.703125 C 3.210938 -6.015625 3.84375 -6.257812 4.5625 -6.4375 C 5.632812 -6.707031 6.53125 -7.46875 7.25 -8.71875 C 8.769531 -11.132812 10.128906 -14.0625 11.328125 -17.5 C 12.535156 -20.945312 13.585938 -24.457031 14.484375 -28.03125 C 15.378906 -31.613281 16.097656 -34.742188 16.640625 -37.421875 L 21.0625 -57.015625 C 22.3125 -62.554688 23.875 -67.898438 25.75 -73.046875 C 27.632812 -78.191406 29.828125 -83.3125 32.328125 -88.40625 L 33.53125 -90.953125 C 33.71875 -91.398438 33.765625 -91.671875 33.671875 -91.765625 C 33.492188 -91.941406 33.316406 -92.03125 33.140625 -92.03125 C 32.773438 -92.03125 32.550781 -91.984375 32.46875 -91.890625 C 27.90625 -90.015625 23.410156 -88.09375 18.984375 -86.125 C 14.554688 -84.15625 10.195312 -82.007812 5.90625 -79.6875 L 2.6875 -77.671875 C 2.59375 -77.585938 2.320312 -77.632812 1.875 -77.8125 C 1.34375 -78.164062 1.253906 -78.523438 1.609375 -78.890625 C 1.785156 -79.066406 1.984375 -79.265625 2.203125 -79.484375 C 2.429688 -79.710938 2.679688 -79.914062 2.953125 -80.09375 C 3.484375 -80.445312 4.015625 -80.757812 4.546875 -81.03125 C 5.085938 -81.300781 5.628906 -81.613281 6.171875 -81.96875 C 6.617188 -82.320312 7.109375 -82.632812 7.640625 -82.90625 C 8.179688 -83.175781 8.71875 -83.445312 9.25 -83.71875 C 13.1875 -85.769531 17.078125 -87.644531 20.921875 -89.34375 C 22.890625 -90.15625 24.859375 -90.984375 26.828125 -91.828125 C 28.796875 -92.679688 30.765625 -93.554688 32.734375 -94.453125 L 33.40625 -94.71875 C 35.550781 -95.425781 37.207031 -96.765625 38.375 -98.734375 C 40.15625 -101.773438 42.453125 -104.632812 45.265625 -107.3125 C 48.085938 -110 51.242188 -111.75 54.734375 -112.5625 C 55.003906 -112.5625 55.226562 -112.601562 55.40625 -112.6875 C 55.5 -112.6875 55.609375 -112.6875 55.734375 -112.6875 C 55.867188 -112.6875 55.984375 -112.6875 56.078125 -112.6875 C 56.703125 -112.6875 57.414062 -112.550781 58.21875 -112.28125 C 59.476562 -111.84375 60.285156 -111.082031 60.640625 -110 C 60.992188 -108.925781 60.769531 -107.851562 59.96875 -106.78125 C 58.976562 -105.53125 57.726562 -104.457031 56.21875 -103.5625 C 53.625 -102.039062 50.984375 -100.585938 48.296875 -99.203125 C 45.609375 -97.816406 42.925781 -96.5 40.25 -95.25 C 38.8125 -94.625 37.601562 -93.550781 36.625 -92.03125 C 33.226562 -85.59375 30.34375 -79.0625 27.96875 -72.4375 C 25.601562 -65.820312 23.660156 -58.9375 22.140625 -51.78125 C 21.328125 -47.9375 20.519531 -44.113281 19.71875 -40.3125 C 18.914062 -36.507812 18.066406 -32.6875 17.171875 -28.84375 C 16.367188 -25.53125 15.472656 -22.285156 14.484375 -19.109375 C 13.503906 -15.941406 12.253906 -12.789062 10.734375 -9.65625 C 10.640625 -9.570312 10.59375 -9.394531 10.59375 -9.125 C 10.59375 -8.769531 10.550781 -8.546875 10.46875 -8.453125 C 10.550781 -8.359375 10.773438 -8.3125 11.140625 -8.3125 L 11.40625 -8.3125 C 12.300781 -8.5 13.21875 -8.632812 14.15625 -8.71875 C 15.09375 -8.8125 16.050781 -8.859375 17.03125 -8.859375 C 18.289062 -8.859375 19.585938 -8.765625 20.921875 -8.578125 C 22.265625 -8.398438 23.5625 -8.222656 24.8125 -8.046875 C 25.257812 -7.960938 25.6875 -7.894531 26.09375 -7.84375 C 26.5 -7.800781 26.878906 -7.734375 27.234375 -7.640625 C 27.585938 -7.554688 27.96875 -7.46875 28.375 -7.375 C 28.78125 -7.289062 29.160156 -7.203125 29.515625 -7.109375 C 29.785156 -7.015625 30.457031 -6.96875 31.53125 -6.96875 C 33.675781 -6.96875 35.929688 -7.59375 38.296875 -8.84375 C 40.671875 -10.101562 42.125 -11.757812 42.65625 -13.8125 C 42.84375 -14.082031 43.023438 -14.21875 43.203125 -14.21875 C 43.378906 -14.21875 43.554688 -14.128906 43.734375 -13.953125 C 44.710938 -13.328125 44.984375 -12.519531 44.546875 -11.53125 C 43.910156 -10.101562 42.878906 -8.941406 41.453125 -8.046875 C 40.203125 -7.148438 38.882812 -6.457031 37.5 -5.96875 C 36.113281 -5.476562 34.660156 -5.234375 33.140625 -5.234375 C 32.960938 -5.234375 32.738281 -5.234375 32.46875 -5.234375 C 32.195312 -5.234375 31.972656 -5.234375 31.796875 -5.234375 C 31.441406 -5.234375 30.992188 -5.320312 30.453125 -5.5 C 29.472656 -5.675781 28.488281 -5.851562 27.5 -6.03125 C 26.519531 -6.21875 25.535156 -6.398438 24.546875 -6.578125 C 23.648438 -6.753906 22.707031 -6.882812 21.71875 -6.96875 C 20.738281 -7.0625 19.671875 -7.109375 18.515625 -7.109375 C 17.347656 -7.109375 16.003906 -7.039062 14.484375 -6.90625 C 12.960938 -6.769531 11.507812 -6.5 10.125 -6.09375 C 8.738281 -5.695312 7.6875 -5.050781 6.96875 -4.15625 C 6.257812 -3.175781 5.28125 -2.414062 4.03125 -1.875 C 3.664062 -1.601562 3.082031 -1.46875 2.28125 -1.46875 Z M 41.59375 -98.734375 C 42.125 -98.734375 42.660156 -98.867188 43.203125 -99.140625 L 51.65625 -103.4375 C 52.457031 -103.882812 53.28125 -104.375 54.125 -104.90625 C 54.976562 -105.445312 55.804688 -106.03125 56.609375 -106.65625 C 56.972656 -106.925781 57.351562 -107.238281 57.75 -107.59375 C 58.15625 -107.945312 58.535156 -108.347656 58.890625 -108.796875 C 59.609375 -109.515625 59.34375 -110.050781 58.09375 -110.40625 C 57.914062 -110.5 57.507812 -110.546875 56.875 -110.546875 C 55.09375 -110.546875 53.191406 -109.941406 51.171875 -108.734375 C 49.160156 -107.523438 47.304688 -106.09375 45.609375 -104.4375 C 43.910156 -102.78125 42.570312 -101.191406 41.59375 -99.671875 C 41.5 -99.316406 41.5 -99.003906 41.59375 -98.734375 Z M 41.59375 -98.734375 "/></g></g></g><g fill="#ffffff" fill-opacity="1"><g transform="translate(74.871906, 236.249984)"><g><path d="M 3.078125 -33.671875 C 2.191406 -33.671875 1.429688 -34.117188 0.796875 -35.015625 C 0.171875 -35.910156 -0.140625 -36.757812 -0.140625 -37.5625 C -0.222656 -37.914062 -0.285156 -38.25 -0.328125 -38.5625 C -0.378906 -38.882812 -0.40625 -39.222656 -0.40625 -39.578125 C -0.40625 -39.929688 -0.40625 -40.265625 -0.40625 -40.578125 C -0.40625 -40.890625 -0.445312 -41.226562 -0.53125 -41.59375 C -0.445312 -44.445312 -0.09375 -47.191406 0.53125 -49.828125 C 1.15625 -52.472656 2.050781 -55.003906 3.21875 -57.421875 C 3.3125 -57.773438 3.625 -57.953125 4.15625 -57.953125 C 4.332031 -57.953125 4.46875 -57.910156 4.5625 -57.828125 C 5.09375 -57.378906 5.269531 -56.929688 5.09375 -56.484375 C 5.007812 -56.390625 4.96875 -56.296875 4.96875 -56.203125 C 4.96875 -56.117188 4.921875 -56.03125 4.828125 -55.9375 C 4.742188 -55.851562 4.703125 -55.742188 4.703125 -55.609375 C 4.703125 -55.472656 4.65625 -55.359375 4.5625 -55.265625 C 3.488281 -52.492188 2.769531 -49.695312 2.40625 -46.875 C 2.050781 -44.0625 1.960938 -41.179688 2.140625 -38.234375 C 2.140625 -38.234375 2.234375 -37.960938 2.421875 -37.421875 C 2.421875 -37.160156 2.550781 -37.03125 2.8125 -37.03125 C 2.988281 -37.03125 3.171875 -37.117188 3.359375 -37.296875 C 3.535156 -37.566406 3.710938 -37.859375 3.890625 -38.171875 C 4.066406 -38.484375 4.242188 -38.816406 4.421875 -39.171875 C 5.046875 -40.691406 5.691406 -42.253906 6.359375 -43.859375 C 7.035156 -45.472656 7.6875 -47.039062 8.3125 -48.5625 C 9.03125 -50.082031 9.679688 -51.625 10.265625 -53.1875 C 10.847656 -54.757812 11.363281 -56.304688 11.8125 -57.828125 L 13.015625 -60.765625 C 13.285156 -61.035156 13.460938 -61.257812 13.546875 -61.4375 C 13.722656 -61.625 13.90625 -61.71875 14.09375 -61.71875 C 14.445312 -61.625 14.753906 -61.375 15.015625 -60.96875 C 15.285156 -60.570312 15.378906 -60.238281 15.296875 -59.96875 C 15.117188 -59.25 14.9375 -58.753906 14.75 -58.484375 C 14.488281 -57.679688 14.222656 -56.878906 13.953125 -56.078125 C 13.679688 -55.273438 13.457031 -54.46875 13.28125 -53.65625 C 13.101562 -53.300781 13.015625 -52.8125 13.015625 -52.1875 C 13.015625 -51.914062 13.144531 -51.664062 13.40625 -51.4375 C 13.675781 -51.21875 13.90625 -51.15625 14.09375 -51.25 C 15.875 -51.519531 17.390625 -51.96875 18.640625 -52.59375 L 22.265625 -54.46875 C 22.628906 -54.644531 22.988281 -54.734375 23.34375 -54.734375 C 23.789062 -54.734375 24.054688 -54.554688 24.140625 -54.203125 C 24.410156 -53.660156 24.191406 -53.164062 23.484375 -52.71875 C 22.410156 -52.007812 21 -51.296875 19.25 -50.578125 C 17.507812 -49.859375 15.96875 -49.5 14.625 -49.5 C 14.53125 -49.5 14.367188 -49.519531 14.140625 -49.5625 C 13.921875 -49.613281 13.679688 -49.679688 13.421875 -49.765625 C 12.878906 -50.035156 12.519531 -50.171875 12.34375 -50.171875 C 11.988281 -50.171875 11.585938 -49.679688 11.140625 -48.703125 C 10.773438 -47.804688 10.4375 -46.929688 10.125 -46.078125 C 9.8125 -45.234375 9.476562 -44.363281 9.125 -43.46875 C 8.769531 -42.570312 8.410156 -41.695312 8.046875 -40.84375 C 7.691406 -40 7.332031 -39.128906 6.96875 -38.234375 C 6.789062 -37.609375 6.566406 -37.070312 6.296875 -36.625 C 6.035156 -36.175781 5.816406 -35.726562 5.640625 -35.28125 C 5.015625 -34.207031 4.160156 -33.671875 3.078125 -33.671875 Z M 3.078125 -33.671875 "/></g></g></g><g fill="#ffffff" fill-opacity="1"><g transform="translate(96.066751, 236.249984)"><g><path d="M 17.4375 4.96875 C 16.457031 4.96875 15.675781 4.8125 15.09375 4.5 C 14.507812 4.1875 14.175781 3.492188 14.09375 2.421875 C 13.820312 1.078125 13.910156 -0.488281 14.359375 -2.28125 C 15.066406 -5.5 16.316406 -9.078125 18.109375 -13.015625 C 19.898438 -16.953125 21.890625 -20.816406 24.078125 -24.609375 C 26.273438 -28.410156 28.265625 -31.65625 30.046875 -34.34375 C 31.117188 -35.957031 31.65625 -37.703125 31.65625 -39.578125 C 31.570312 -41.546875 31.394531 -44.003906 31.125 -46.953125 C 30.851562 -49.898438 30.425781 -52.804688 29.84375 -55.671875 C 29.269531 -58.535156 28.351562 -60.726562 27.09375 -62.25 C 26.289062 -63.414062 25.441406 -64 24.546875 -64 C 23.742188 -64 23.03125 -63.679688 22.40625 -63.046875 C 21.6875 -62.597656 21.054688 -62.101562 20.515625 -61.5625 C 19.984375 -61.03125 19.453125 -60.453125 18.921875 -59.828125 C 18.472656 -59.296875 18 -58.757812 17.5 -58.21875 C 17.007812 -57.6875 16.539062 -57.148438 16.09375 -56.609375 C 15.644531 -55.984375 15.148438 -55.398438 14.609375 -54.859375 C 14.078125 -54.328125 13.585938 -53.75 13.140625 -53.125 C 11.984375 -51.78125 10.84375 -50.484375 9.71875 -49.234375 C 8.601562 -47.984375 7.421875 -46.734375 6.171875 -45.484375 C 5.816406 -45.117188 5.4375 -44.78125 5.03125 -44.46875 C 4.625 -44.15625 4.242188 -43.910156 3.890625 -43.734375 C 3.535156 -43.554688 3.085938 -43.46875 2.546875 -43.46875 C 0.753906 -43.46875 -0.226562 -44.40625 -0.40625 -46.28125 C -0.40625 -47.445312 -0.0703125 -49.015625 0.59375 -50.984375 C 1.269531 -52.953125 2.078125 -54.828125 3.015625 -56.609375 C 3.953125 -58.398438 4.828125 -59.609375 5.640625 -60.234375 C 6.171875 -60.410156 6.4375 -60.5 6.4375 -60.5 C 6.53125 -60.5 6.597656 -60.5 6.640625 -60.5 C 6.679688 -60.5 6.75 -60.5 6.84375 -60.5 C 6.84375 -60.414062 6.929688 -60.375 7.109375 -60.375 C 7.285156 -60.28125 7.441406 -60.117188 7.578125 -59.890625 C 7.710938 -59.671875 7.691406 -59.519531 7.515625 -59.4375 C 5.898438 -57.914062 4.753906 -56.210938 4.078125 -54.328125 C 3.410156 -52.453125 2.765625 -50.53125 2.140625 -48.5625 C 1.878906 -47.582031 1.789062 -46.734375 1.875 -46.015625 C 2.050781 -45.742188 2.234375 -45.609375 2.421875 -45.609375 C 2.503906 -45.703125 2.59375 -45.75 2.6875 -45.75 C 3.132812 -45.925781 3.515625 -46.171875 3.828125 -46.484375 C 4.140625 -46.796875 4.472656 -47.128906 4.828125 -47.484375 L 10.859375 -54.203125 C 11.398438 -54.828125 11.9375 -55.425781 12.46875 -56 C 13.007812 -56.582031 13.550781 -57.191406 14.09375 -57.828125 C 14.53125 -58.453125 15.015625 -59.050781 15.546875 -59.625 C 16.085938 -60.207031 16.582031 -60.8125 17.03125 -61.4375 C 18.195312 -62.601562 19.363281 -63.632812 20.53125 -64.53125 C 21.507812 -65.25 22.535156 -65.609375 23.609375 -65.609375 C 25.304688 -65.609375 26.738281 -64.9375 27.90625 -63.59375 C 29.070312 -62.25 30.007812 -60.570312 30.71875 -58.5625 C 31.4375 -56.550781 32.019531 -54.492188 32.46875 -52.390625 C 32.914062 -50.285156 33.226562 -48.472656 33.40625 -46.953125 C 33.488281 -45.972656 33.578125 -44.988281 33.671875 -44 C 33.765625 -43.019531 33.898438 -41.945312 34.078125 -40.78125 C 34.703125 -41.050781 35.144531 -41.363281 35.40625 -41.71875 C 35.675781 -42.082031 35.945312 -42.441406 36.21875 -42.796875 C 37.738281 -44.585938 39.257812 -46.304688 40.78125 -47.953125 C 42.300781 -49.609375 43.867188 -51.285156 45.484375 -52.984375 C 45.742188 -53.253906 46.007812 -53.5 46.28125 -53.71875 C 46.550781 -53.945312 46.863281 -54.195312 47.21875 -54.46875 C 47.3125 -54.5625 47.445312 -54.609375 47.625 -54.609375 C 47.976562 -54.609375 48.203125 -54.472656 48.296875 -54.203125 C 48.648438 -53.835938 48.785156 -53.476562 48.703125 -53.125 C 48.609375 -52.851562 48.382812 -52.539062 48.03125 -52.1875 C 47.9375 -52.09375 47.820312 -51.976562 47.6875 -51.84375 C 47.550781 -51.71875 47.394531 -51.5625 47.21875 -51.375 C 45.4375 -49.59375 43.71875 -47.804688 42.0625 -46.015625 C 40.40625 -44.222656 38.816406 -42.390625 37.296875 -40.515625 C 36.941406 -39.890625 36.492188 -39.304688 35.953125 -38.765625 C 35.234375 -37.960938 34.71875 -37.09375 34.40625 -36.15625 C 34.09375 -35.21875 33.894531 -34.164062 33.8125 -33 C 33.539062 -27.726562 32.507812 -22.40625 30.71875 -17.03125 C 30.269531 -15.695312 29.597656 -13.820312 28.703125 -11.40625 C 27.816406 -8.988281 26.789062 -6.523438 25.625 -4.015625 C 24.457031 -1.515625 23.179688 0.601562 21.796875 2.34375 C 20.410156 4.09375 18.957031 4.96875 17.4375 4.96875 Z M 17.4375 3.21875 C 17.707031 3.21875 17.972656 3.082031 18.234375 2.8125 C 18.503906 2.550781 18.734375 2.285156 18.921875 2.015625 C 20.523438 0.398438 21.972656 -1.703125 23.265625 -4.296875 C 24.566406 -6.890625 25.734375 -9.707031 26.765625 -12.75 C 27.796875 -15.789062 28.664062 -18.785156 29.375 -21.734375 C 30.09375 -24.679688 30.628906 -27.273438 30.984375 -29.515625 C 30.984375 -29.960938 30.851562 -30.1875 30.59375 -30.1875 C 30.40625 -30.1875 30.222656 -30.097656 30.046875 -29.921875 C 28.890625 -28.128906 27.550781 -25.910156 26.03125 -23.265625 C 24.507812 -20.628906 23.03125 -17.835938 21.59375 -14.890625 C 20.164062 -11.941406 18.957031 -9.101562 17.96875 -6.375 C 16.988281 -3.644531 16.410156 -1.296875 16.234375 0.671875 L 16.234375 1.078125 C 16.316406 1.335938 16.359375 1.738281 16.359375 2.28125 C 16.273438 2.632812 16.457031 2.898438 16.90625 3.078125 C 16.988281 3.171875 17.164062 3.21875 17.4375 3.21875 Z M 17.4375 3.21875 "/></g></g></g><g fill="#ffffff" fill-opacity="1"><g transform="translate(141.679683, 236.249984)"><g><path d="M 29.25 -7.921875 C 28.625 -7.921875 28.3125 -8.144531 28.3125 -8.59375 C 28.21875 -8.851562 28.171875 -9.390625 28.171875 -10.203125 C 28.078125 -10.910156 28.03125 -11.664062 28.03125 -12.46875 C 28.03125 -13.28125 28.03125 -14.039062 28.03125 -14.75 C 28.03125 -15.46875 28.03125 -16.226562 28.03125 -17.03125 C 28.03125 -17.84375 27.988281 -18.601562 27.90625 -19.3125 C 27.8125 -19.582031 27.765625 -20.078125 27.765625 -20.796875 C 27.765625 -21.421875 27.585938 -21.957031 27.234375 -22.40625 C 26.429688 -22.226562 25.894531 -22.050781 25.625 -21.875 C 25.445312 -21.6875 25.222656 -21.523438 24.953125 -21.390625 C 24.679688 -21.265625 24.410156 -21.109375 24.140625 -20.921875 C 23.703125 -20.742188 23.234375 -20.519531 22.734375 -20.25 C 22.242188 -19.988281 21.773438 -19.769531 21.328125 -19.59375 C 20.253906 -19.144531 19.269531 -18.785156 18.375 -18.515625 C 18.113281 -18.421875 17.441406 -18.375 16.359375 -18.375 C 14.304688 -18.375 12.453125 -18.929688 10.796875 -20.046875 C 9.140625 -21.171875 8 -22.71875 7.375 -24.6875 C 6.75 -26.738281 6.613281 -29.019531 6.96875 -31.53125 C 7.78125 -35.644531 9.054688 -39.488281 10.796875 -43.0625 C 12.546875 -46.644531 14.625 -50.085938 17.03125 -53.390625 C 17.21875 -53.660156 17.441406 -53.929688 17.703125 -54.203125 C 17.972656 -54.472656 18.242188 -54.738281 18.515625 -55 C 18.691406 -55.269531 18.890625 -55.5625 19.109375 -55.875 C 19.335938 -56.1875 19.539062 -56.519531 19.71875 -56.875 C 19.539062 -56.96875 19.335938 -57.035156 19.109375 -57.078125 C 18.890625 -57.128906 18.601562 -57.15625 18.25 -57.15625 C 17.351562 -57.15625 16.769531 -57.109375 16.5 -57.015625 C 16.226562 -56.921875 15.554688 -56.875 14.484375 -56.875 L 13.6875 -56.875 C 12.4375 -57.238281 11.585938 -57.84375 11.140625 -58.6875 C 10.691406 -59.539062 10.820312 -60.503906 11.53125 -61.578125 C 12.34375 -62.828125 13.726562 -64.347656 15.6875 -66.140625 C 17.65625 -67.929688 19.734375 -69.628906 21.921875 -71.234375 C 24.117188 -72.847656 25.800781 -73.878906 26.96875 -74.328125 C 27.769531 -74.773438 28.21875 -75.441406 28.3125 -76.328125 C 28.570312 -79.734375 28.972656 -83.085938 29.515625 -86.390625 C 29.515625 -87.378906 29.691406 -88.273438 30.046875 -89.078125 C 30.046875 -89.617188 30.269531 -89.796875 30.71875 -89.609375 C 31.257812 -89.609375 31.53125 -89.34375 31.53125 -88.8125 C 31.53125 -88.71875 31.53125 -88.601562 31.53125 -88.46875 C 31.53125 -88.34375 31.53125 -88.1875 31.53125 -88 C 31.4375 -87.820312 31.390625 -87.554688 31.390625 -87.203125 L 30.59375 -79.15625 C 30.59375 -78.976562 30.59375 -78.796875 30.59375 -78.609375 C 30.59375 -78.429688 30.59375 -78.253906 30.59375 -78.078125 C 30.5 -77.804688 30.539062 -77.40625 30.71875 -76.875 L 30.984375 -76.875 C 31.429688 -76.875 31.859375 -76.960938 32.265625 -77.140625 C 32.671875 -77.316406 33.050781 -77.492188 33.40625 -77.671875 C 34.832031 -78.296875 36.304688 -78.851562 37.828125 -79.34375 C 39.347656 -79.84375 40.867188 -80.269531 42.390625 -80.625 C 42.835938 -80.71875 43.304688 -80.785156 43.796875 -80.828125 C 44.296875 -80.867188 44.765625 -80.890625 45.203125 -80.890625 C 45.648438 -80.890625 46.117188 -80.890625 46.609375 -80.890625 C 47.109375 -80.890625 47.582031 -80.890625 48.03125 -80.890625 C 48.476562 -80.890625 48.789062 -80.847656 48.96875 -80.765625 C 49.769531 -80.671875 50.257812 -80.222656 50.4375 -79.421875 C 50.53125 -79.148438 50.441406 -78.878906 50.171875 -78.609375 C 49.722656 -78.160156 49.234375 -77.9375 48.703125 -77.9375 C 48.429688 -77.9375 48.160156 -78.070312 47.890625 -78.34375 C 47.359375 -78.882812 46.6875 -79.15625 45.875 -79.15625 C 45.789062 -79.15625 45.703125 -79.15625 45.609375 -79.15625 C 45.523438 -79.15625 45.4375 -79.15625 45.34375 -79.15625 C 45.164062 -79.0625 44.941406 -79.015625 44.671875 -79.015625 C 40.378906 -78.117188 36.128906 -76.644531 31.921875 -74.59375 C 30.765625 -73.96875 30.097656 -72.984375 29.921875 -71.640625 C 29.921875 -71.285156 29.921875 -70.925781 29.921875 -70.5625 C 29.921875 -70.207031 29.921875 -69.851562 29.921875 -69.5 C 29.828125 -69.132812 29.78125 -68.75 29.78125 -68.34375 C 29.78125 -67.945312 29.78125 -67.570312 29.78125 -67.21875 C 29.78125 -66.40625 29.957031 -66 30.3125 -66 C 30.582031 -66 30.988281 -66.132812 31.53125 -66.40625 L 34.875 -68.015625 C 35.945312 -68.460938 37 -68.84375 38.03125 -69.15625 C 39.0625 -69.46875 40.15625 -69.671875 41.3125 -69.765625 C 41.5 -69.847656 41.90625 -69.890625 42.53125 -69.890625 C 43.15625 -69.890625 43.554688 -69.847656 43.734375 -69.765625 C 44.273438 -69.671875 44.632812 -69.46875 44.8125 -69.15625 C 44.988281 -68.84375 45.164062 -68.460938 45.34375 -68.015625 C 45.613281 -67.210938 45.347656 -66.628906 44.546875 -66.265625 C 43.378906 -65.378906 42.082031 -64.664062 40.65625 -64.125 C 39.394531 -63.59375 38.09375 -63.078125 36.75 -62.578125 C 35.414062 -62.085938 34.078125 -61.617188 32.734375 -61.171875 C 31.035156 -60.640625 30.050781 -60.171875 29.78125 -59.765625 C 29.507812 -59.359375 29.375 -58.21875 29.375 -56.34375 C 29.375 -47.84375 29.507812 -39.347656 29.78125 -30.859375 C 29.78125 -30.054688 29.828125 -29.519531 29.921875 -29.25 C 30.097656 -28.4375 30.320312 -28.03125 30.59375 -28.03125 C 31.21875 -28.03125 32.15625 -28.613281 33.40625 -29.78125 C 34.65625 -30.945312 35.859375 -32.195312 37.015625 -33.53125 C 38.179688 -34.875 38.988281 -35.816406 39.4375 -36.359375 C 39.53125 -36.535156 39.6875 -36.78125 39.90625 -37.09375 C 40.132812 -37.40625 40.382812 -37.5625 40.65625 -37.5625 C 40.738281 -37.5625 40.867188 -37.472656 41.046875 -37.296875 C 41.585938 -37.203125 41.769531 -36.890625 41.59375 -36.359375 C 41.59375 -35.554688 40.960938 -34.4375 39.703125 -33 C 38.453125 -31.570312 37.066406 -30.207031 35.546875 -28.90625 C 34.023438 -27.613281 32.863281 -26.695312 32.0625 -26.15625 C 30.632812 -25.082031 29.960938 -23.5625 30.046875 -21.59375 C 30.316406 -17.300781 30.453125 -13.007812 30.453125 -8.71875 C 30.359375 -8.1875 29.957031 -7.921875 29.25 -7.921875 Z M 15.03125 -19.984375 C 15.738281 -19.984375 16.40625 -20.070312 17.03125 -20.25 C 17.664062 -20.4375 18.296875 -20.617188 18.921875 -20.796875 C 20.171875 -21.242188 21.332031 -21.78125 22.40625 -22.40625 C 23.476562 -23.03125 24.550781 -23.65625 25.625 -24.28125 C 26.96875 -25 27.640625 -26.160156 27.640625 -27.765625 C 27.546875 -29.023438 27.476562 -30.253906 27.4375 -31.453125 C 27.394531 -32.660156 27.375 -33.847656 27.375 -35.015625 C 27.375 -36.265625 27.375 -37.492188 27.375 -38.703125 C 27.375 -39.910156 27.328125 -41.097656 27.234375 -42.265625 L 27.234375 -56.75 C 27.234375 -57.28125 27.28125 -57.679688 27.375 -57.953125 C 27.375 -58.398438 27.191406 -58.671875 26.828125 -58.765625 C 26.648438 -58.847656 26.515625 -58.910156 26.421875 -58.953125 C 26.335938 -59.003906 26.25 -59.03125 26.15625 -59.03125 C 25.800781 -59.03125 25.507812 -58.914062 25.28125 -58.6875 C 25.0625 -58.46875 24.863281 -58.269531 24.6875 -58.09375 C 24.320312 -57.820312 23.921875 -57.460938 23.484375 -57.015625 C 21.242188 -54.773438 19.003906 -52 16.765625 -48.6875 C 14.535156 -45.382812 12.660156 -41.898438 11.140625 -38.234375 C 9.617188 -34.566406 8.859375 -31.125 8.859375 -27.90625 C 8.859375 -26.113281 9.125 -24.546875 9.65625 -23.203125 C 10.195312 -21.867188 11.359375 -20.882812 13.140625 -20.25 C 13.328125 -20.164062 13.507812 -20.097656 13.6875 -20.046875 C 13.863281 -20.003906 14.039062 -19.984375 14.21875 -19.984375 C 14.394531 -19.984375 14.550781 -19.984375 14.6875 -19.984375 C 14.820312 -19.984375 14.9375 -19.984375 15.03125 -19.984375 Z M 14.09375 -58.890625 C 17.125 -58.890625 20.253906 -59.515625 23.484375 -60.765625 C 24.734375 -61.304688 25.78125 -62.023438 26.625 -62.921875 C 27.476562 -63.816406 27.769531 -65.066406 27.5 -66.671875 C 27.5 -67.484375 27.546875 -68.019531 27.640625 -68.28125 L 27.640625 -69.890625 C 27.640625 -70.253906 27.679688 -70.566406 27.765625 -70.828125 C 27.941406 -71.097656 27.8125 -71.320312 27.375 -71.5 C 27.28125 -71.5 27.234375 -71.546875 27.234375 -71.640625 C 27.140625 -71.640625 27.09375 -71.640625 27.09375 -71.640625 C 27.09375 -71.640625 27.050781 -71.640625 26.96875 -71.640625 C 26.519531 -71.640625 26.070312 -71.414062 25.625 -70.96875 C 24.457031 -70.164062 23.066406 -69.132812 21.453125 -67.875 C 19.847656 -66.625 18.285156 -65.347656 16.765625 -64.046875 C 15.242188 -62.753906 14.082031 -61.53125 13.28125 -60.375 C 13.1875 -60.195312 13.09375 -59.992188 13 -59.765625 C 12.914062 -59.546875 12.960938 -59.34375 13.140625 -59.15625 C 13.328125 -58.976562 13.644531 -58.890625 14.09375 -58.890625 Z M 32.734375 -63.59375 C 33.984375 -63.945312 35.1875 -64.347656 36.34375 -64.796875 C 37.507812 -65.242188 38.722656 -65.78125 39.984375 -66.40625 C 40.515625 -66.675781 40.644531 -67.078125 40.375 -67.609375 C 39.75 -67.429688 39.164062 -67.226562 38.625 -67 C 38.09375 -66.78125 37.515625 -66.582031 36.890625 -66.40625 C 35.816406 -66.050781 34.695312 -65.515625 33.53125 -64.796875 C 33.445312 -64.703125 33.359375 -64.632812 33.265625 -64.59375 C 33.179688 -64.550781 33.09375 -64.484375 33 -64.390625 C 32.726562 -64.210938 32.640625 -63.945312 32.734375 -63.59375 Z M 32.734375 -63.59375 "/></g></g></g><g fill="#ffffff" fill-opacity="1"><g transform="translate(198.832026, 236.249984)"><g><path d="M 8.59375 -10.859375 C 8.144531 -10.859375 7.757812 -10.945312 7.4375 -11.125 C 7.125 -11.3125 6.75 -11.539062 6.3125 -11.8125 C 4.96875 -12.96875 3.914062 -14.753906 3.15625 -17.171875 C 2.394531 -19.585938 1.878906 -21.644531 1.609375 -23.34375 C 0.804688 -27.726562 0.3125 -32.085938 0.125 -36.421875 C -0.0507812 -40.765625 0.0390625 -45.171875 0.40625 -49.640625 C 0.9375 -57.691406 2.320312 -65.875 4.5625 -74.1875 C 6.800781 -82.507812 9.84375 -90.15625 13.6875 -97.125 C 13.769531 -97.21875 13.878906 -97.351562 14.015625 -97.53125 C 14.148438 -97.707031 14.304688 -97.929688 14.484375 -98.203125 C 14.753906 -98.648438 15.023438 -98.875 15.296875 -98.875 C 15.828125 -98.875 16.09375 -98.5625 16.09375 -97.9375 C 16.09375 -97.757812 16.046875 -97.554688 15.953125 -97.328125 C 15.867188 -97.109375 15.785156 -96.910156 15.703125 -96.734375 C 11.585938 -89.484375 8.585938 -81.851562 6.703125 -73.84375 C 4.828125 -65.84375 3.578125 -57.726562 2.953125 -49.5 C 2.410156 -44.132812 2.410156 -38.769531 2.953125 -33.40625 C 3.128906 -30.269531 3.507812 -26.890625 4.09375 -23.265625 C 4.675781 -19.648438 5.769531 -16.410156 7.375 -13.546875 C 7.644531 -13.191406 7.914062 -13.015625 8.1875 -13.015625 C 8.539062 -13.015625 8.804688 -13.238281 8.984375 -13.6875 C 9.160156 -14.039062 9.382812 -14.484375 9.65625 -15.015625 C 9.925781 -15.554688 10.148438 -16.1875 10.328125 -16.90625 C 11.222656 -19.582031 12.03125 -22.488281 12.75 -25.625 C 13.101562 -27.144531 13.4375 -28.640625 13.75 -30.109375 C 14.0625 -31.585938 14.394531 -33.046875 14.75 -34.484375 C 15.5625 -38.597656 16.570312 -43.179688 17.78125 -48.234375 C 18.988281 -53.285156 20.375 -58.378906 21.9375 -63.515625 C 23.5 -68.660156 25.332031 -73.535156 27.4375 -78.140625 C 29.539062 -82.753906 31.890625 -86.671875 34.484375 -89.890625 C 34.660156 -90.242188 34.90625 -90.550781 35.21875 -90.8125 C 35.53125 -91.082031 35.863281 -91.351562 36.21875 -91.625 C 36.664062 -91.894531 37.066406 -92.03125 37.421875 -92.03125 C 38.316406 -92.03125 38.859375 -91.539062 39.046875 -90.5625 C 39.222656 -90.113281 39.265625 -89.640625 39.171875 -89.140625 C 39.085938 -88.648438 39 -88.179688 38.90625 -87.734375 C 38.457031 -85.859375 38.007812 -84.003906 37.5625 -82.171875 C 37.113281 -80.335938 36.664062 -78.523438 36.21875 -76.734375 C 34.96875 -71.191406 34.050781 -65.691406 33.46875 -60.234375 C 32.882812 -54.773438 32.6875 -49.226562 32.875 -43.59375 C 32.875 -42.257812 32.984375 -40.296875 33.203125 -37.703125 C 33.421875 -35.109375 33.820312 -32.46875 34.40625 -29.78125 C 34.988281 -27.101562 35.75 -24.800781 36.6875 -22.875 C 37.625 -20.945312 38.8125 -19.984375 40.25 -19.984375 C 41.769531 -19.984375 43.175781 -20.851562 44.46875 -22.59375 C 45.769531 -24.34375 46.867188 -25.9375 47.765625 -27.375 C 49.015625 -29.695312 50.242188 -32.039062 51.453125 -34.40625 C 52.660156 -36.78125 53.84375 -39.175781 55 -41.59375 C 55.363281 -42.488281 55.722656 -43.335938 56.078125 -44.140625 C 56.429688 -44.941406 56.789062 -45.742188 57.15625 -46.546875 C 57.507812 -47.359375 57.863281 -48.164062 58.21875 -48.96875 C 58.582031 -49.769531 58.941406 -50.570312 59.296875 -51.375 C 59.472656 -51.738281 59.648438 -52.117188 59.828125 -52.515625 C 60.015625 -52.921875 60.195312 -53.300781 60.375 -53.65625 C 60.457031 -54.019531 60.722656 -54.203125 61.171875 -54.203125 C 61.441406 -54.203125 61.625 -54.15625 61.71875 -54.0625 C 62.25 -53.707031 62.425781 -53.304688 62.25 -52.859375 C 62.25 -52.765625 62.160156 -52.453125 61.984375 -51.921875 C 61.171875 -49.859375 60.160156 -47.414062 58.953125 -44.59375 C 57.753906 -41.78125 56.4375 -38.898438 55 -35.953125 C 53.570312 -33.003906 52.097656 -30.207031 50.578125 -27.5625 C 49.054688 -24.925781 47.582031 -22.804688 46.15625 -21.203125 C 44.71875 -19.492188 42.925781 -18.640625 40.78125 -18.640625 C 39.53125 -18.640625 38.320312 -18.972656 37.15625 -19.640625 C 36 -20.316406 35.109375 -21.28125 34.484375 -22.53125 C 33.046875 -26.019531 32.082031 -29.375 31.59375 -32.59375 C 31.101562 -35.8125 30.769531 -39.347656 30.59375 -43.203125 C 30.40625 -48.835938 30.601562 -54.378906 31.1875 -59.828125 C 31.769531 -65.285156 32.6875 -70.742188 33.9375 -76.203125 C 34.113281 -77.097656 34.335938 -77.96875 34.609375 -78.8125 C 34.878906 -79.664062 35.101562 -80.539062 35.28125 -81.4375 C 35.457031 -82.332031 35.65625 -83.203125 35.875 -84.046875 C 36.101562 -84.898438 36.304688 -85.773438 36.484375 -86.671875 C 36.578125 -86.929688 36.644531 -87.21875 36.6875 -87.53125 C 36.738281 -87.84375 36.671875 -88.132812 36.484375 -88.40625 C 36.035156 -88.40625 35.675781 -88.222656 35.40625 -87.859375 C 35.144531 -87.503906 34.925781 -87.148438 34.75 -86.796875 C 31.4375 -82.054688 28.726562 -76.664062 26.625 -70.625 C 24.53125 -64.59375 22.765625 -58.847656 21.328125 -53.390625 C 20.703125 -51.066406 20.117188 -48.742188 19.578125 -46.421875 C 19.046875 -44.097656 18.554688 -41.769531 18.109375 -39.4375 C 17.660156 -37.113281 17.164062 -34.789062 16.625 -32.46875 C 16.09375 -30.144531 15.601562 -27.816406 15.15625 -25.484375 C 14.976562 -24.679688 14.773438 -23.878906 14.546875 -23.078125 C 14.328125 -22.273438 14.128906 -21.515625 13.953125 -20.796875 C 13.773438 -19.992188 13.550781 -19.1875 13.28125 -18.375 C 13.007812 -17.570312 12.785156 -16.8125 12.609375 -16.09375 C 12.429688 -15.382812 12.207031 -14.757812 11.9375 -14.21875 C 11.664062 -13.6875 11.441406 -13.238281 11.265625 -12.875 C 10.640625 -11.53125 9.75 -10.859375 8.59375 -10.859375 Z M 8.59375 -10.859375 "/></g></g></g><g fill="#ffffff" fill-opacity="1"><g transform="translate(257.989794, 236.249984)"><g><path d="M 0.140625 -33.53125 C -2.273438 -33.53125 -3.707031 -34.785156 -4.15625 -37.296875 C -4.332031 -38.367188 -4.332031 -39.394531 -4.15625 -40.375 C -3.707031 -43.238281 -2.859375 -45.921875 -1.609375 -48.421875 C -0.359375 -50.929688 1.113281 -53.347656 2.8125 -55.671875 C 3.175781 -56.117188 3.535156 -56.300781 3.890625 -56.21875 C 4.066406 -56.21875 4.289062 -56.015625 4.5625 -55.609375 C 4.832031 -55.203125 4.878906 -54.910156 4.703125 -54.734375 C 4.515625 -54.378906 4.351562 -54.066406 4.21875 -53.796875 C 4.09375 -53.523438 3.9375 -53.300781 3.75 -53.125 C 2.414062 -51.332031 1.320312 -49.429688 0.46875 -47.421875 C -0.382812 -45.410156 -1.125 -43.332031 -1.75 -41.1875 C -2.007812 -39.570312 -2.097656 -38.140625 -2.015625 -36.890625 C -2.015625 -35.992188 -1.613281 -35.546875 -0.8125 -35.546875 L -0.265625 -35.6875 C 0.535156 -35.769531 1.429688 -36.257812 2.421875 -37.15625 C 4.921875 -38.675781 7.019531 -40.421875 8.71875 -42.390625 L 17.578125 -51.78125 C 17.753906 -51.957031 17.929688 -52.15625 18.109375 -52.375 C 18.285156 -52.601562 18.460938 -52.804688 18.640625 -52.984375 C 18.828125 -53.171875 19.007812 -53.351562 19.1875 -53.53125 C 19.363281 -53.707031 19.539062 -53.882812 19.71875 -54.0625 C 19.894531 -54.238281 20.070312 -54.328125 20.25 -54.328125 C 20.613281 -54.328125 20.863281 -54.171875 21 -53.859375 C 21.132812 -53.546875 21.242188 -53.253906 21.328125 -52.984375 C 21.328125 -52.546875 20.769531 -51.675781 19.65625 -50.375 C 18.539062 -49.082031 17.15625 -47.609375 15.5 -45.953125 C 13.84375 -44.296875 12.164062 -42.660156 10.46875 -41.046875 C 8.769531 -39.441406 7.289062 -38.078125 6.03125 -36.953125 C 4.78125 -35.835938 4.066406 -35.191406 3.890625 -35.015625 C 3.710938 -34.921875 3.554688 -34.828125 3.421875 -34.734375 C 3.285156 -34.648438 3.128906 -34.566406 2.953125 -34.484375 C 2.859375 -34.390625 2.722656 -34.296875 2.546875 -34.203125 C 2.367188 -34.117188 2.191406 -34.03125 2.015625 -33.9375 C 1.390625 -33.664062 0.765625 -33.53125 0.140625 -33.53125 Z M 5.765625 -59.828125 C 5.316406 -60.273438 5.140625 -60.632812 5.234375 -60.90625 L 5.640625 -61.71875 C 5.992188 -62.25 6.328125 -62.757812 6.640625 -63.25 C 6.953125 -63.75 7.242188 -64.21875 7.515625 -64.65625 C 7.691406 -65.019531 7.890625 -65.332031 8.109375 -65.59375 C 8.335938 -65.863281 8.539062 -66.179688 8.71875 -66.546875 C 8.894531 -66.898438 9.070312 -67.210938 9.25 -67.484375 C 9.4375 -67.753906 9.617188 -68.066406 9.796875 -68.421875 C 9.878906 -68.773438 10.101562 -68.953125 10.46875 -68.953125 C 10.644531 -68.953125 10.773438 -68.910156 10.859375 -68.828125 C 11.046875 -68.640625 11.140625 -68.546875 11.140625 -68.546875 C 11.140625 -68.367188 11.179688 -68.238281 11.265625 -68.15625 C 11.265625 -67.613281 11.222656 -67.300781 11.140625 -67.21875 C 10.421875 -65.957031 9.703125 -64.722656 8.984375 -63.515625 C 8.273438 -62.316406 7.472656 -61.179688 6.578125 -60.109375 C 6.304688 -59.835938 6.035156 -59.742188 5.765625 -59.828125 Z M 5.765625 -59.828125 "/></g></g></g><g fill="#ffffff" fill-opacity="1"><g transform="translate(276.233461, 236.249984)"><g><path d="M 1.75 -28.578125 C 0.757812 -28.578125 0.128906 -28.976562 -0.140625 -29.78125 C -0.398438 -30.320312 -0.550781 -30.835938 -0.59375 -31.328125 C -0.644531 -31.816406 -0.671875 -32.332031 -0.671875 -32.875 C -0.941406 -38.320312 -0.445312 -43.953125 0.8125 -49.765625 C 1.25 -51.828125 1.757812 -53.863281 2.34375 -55.875 C 2.925781 -57.882812 3.617188 -59.875 4.421875 -61.84375 L 5.640625 -64.390625 C 5.992188 -64.753906 6.257812 -64.9375 6.4375 -64.9375 C 6.53125 -64.84375 6.617188 -64.796875 6.703125 -64.796875 C 7.242188 -64.523438 7.515625 -64.125 7.515625 -63.59375 L 7.109375 -62.65625 C 5.503906 -58.894531 4.273438 -55.113281 3.421875 -51.3125 C 2.566406 -47.507812 1.960938 -43.597656 1.609375 -39.578125 L 1.609375 -37.296875 C 1.609375 -37.296875 1.648438 -37.269531 1.734375 -37.21875 C 1.828125 -37.175781 1.921875 -37.066406 2.015625 -36.890625 L 2.28125 -36.890625 L 3.078125 -39.578125 C 3.617188 -41.628906 4.398438 -44.195312 5.421875 -47.28125 C 6.453125 -50.375 7.570312 -53.441406 8.78125 -56.484375 C 9.988281 -59.523438 11.175781 -61.894531 12.34375 -63.59375 C 12.519531 -63.769531 12.742188 -63.859375 13.015625 -63.859375 C 13.285156 -63.859375 13.507812 -63.769531 13.6875 -63.59375 C 14.132812 -63.144531 14.359375 -62.5625 14.359375 -61.84375 L 13.953125 -58.09375 C 13.597656 -55.769531 13.304688 -53.441406 13.078125 -51.109375 C 12.859375 -48.785156 12.835938 -46.414062 13.015625 -44 C 13.015625 -43.101562 13.238281 -41.894531 13.6875 -40.375 C 13.863281 -39.84375 14.128906 -39.578125 14.484375 -39.578125 C 14.753906 -39.578125 14.9375 -39.617188 15.03125 -39.703125 C 15.914062 -40.148438 17.03125 -41.046875 18.375 -42.390625 C 19.71875 -43.734375 21.035156 -45.140625 22.328125 -46.609375 C 23.628906 -48.085938 24.550781 -49.234375 25.09375 -50.046875 C 25.625 -50.753906 26.15625 -51.46875 26.6875 -52.1875 C 27.226562 -52.90625 27.769531 -53.617188 28.3125 -54.328125 C 28.570312 -54.597656 28.835938 -54.734375 29.109375 -54.734375 C 29.285156 -54.734375 29.421875 -54.691406 29.515625 -54.609375 C 29.960938 -54.160156 30.097656 -53.710938 29.921875 -53.265625 C 29.921875 -53.078125 29.832031 -52.894531 29.65625 -52.71875 C 28.039062 -50.394531 26.066406 -47.78125 23.734375 -44.875 C 21.410156 -41.96875 19.046875 -39.753906 16.640625 -38.234375 C 16.097656 -37.960938 15.515625 -37.828125 14.890625 -37.828125 C 13.722656 -37.828125 12.867188 -38.273438 12.328125 -39.171875 C 11.796875 -40.066406 11.441406 -41.003906 11.265625 -41.984375 C 10.734375 -45.210938 10.644531 -48.253906 11 -51.109375 C 11 -51.285156 11 -51.507812 11 -51.78125 C 11 -52.050781 11.046875 -52.320312 11.140625 -52.59375 C 11.222656 -52.945312 11.175781 -53.484375 11 -54.203125 C 10.375 -53.753906 9.679688 -52.519531 8.921875 -50.5 C 8.160156 -48.488281 7.398438 -46.207031 6.640625 -43.65625 C 5.878906 -41.113281 5.226562 -38.722656 4.6875 -36.484375 C 4.15625 -34.253906 3.800781 -32.691406 3.625 -31.796875 C 3.53125 -31.347656 3.4375 -30.941406 3.34375 -30.578125 C 3.257812 -30.222656 3.171875 -29.957031 3.078125 -29.78125 C 2.992188 -28.976562 2.550781 -28.578125 1.75 -28.578125 Z M 1.75 -28.578125 "/></g></g></g><g fill="#ffffff" fill-opacity="1"><g transform="translate(303.062381, 236.249984)"><g><path d="M 12.609375 -30.984375 C 11.359375 -30.984375 10.375 -31.65625 9.65625 -33 C 9.382812 -33.445312 9.25 -33.941406 9.25 -34.484375 C 9.164062 -34.742188 9.125 -35.007812 9.125 -35.28125 C 9.125 -35.550781 9.078125 -35.820312 8.984375 -36.09375 C 8.898438 -37.519531 8.945312 -38.925781 9.125 -40.3125 C 9.300781 -41.695312 9.566406 -43.109375 9.921875 -44.546875 C 10.109375 -45.253906 10.421875 -46.4375 10.859375 -48.09375 C 11.304688 -49.75 11.820312 -51.535156 12.40625 -53.453125 C 12.988281 -55.378906 13.613281 -57.101562 14.28125 -58.625 C 14.957031 -60.144531 15.609375 -61.082031 16.234375 -61.4375 C 16.054688 -61.53125 15.921875 -61.597656 15.828125 -61.640625 C 15.742188 -61.691406 15.65625 -61.71875 15.5625 -61.71875 C 15.46875 -61.71875 15.332031 -61.625 15.15625 -61.4375 C 14.53125 -60.988281 14.128906 -60.5 13.953125 -59.96875 C 13.410156 -59.25 12.867188 -58.53125 12.328125 -57.8125 C 11.796875 -57.101562 11.304688 -56.390625 10.859375 -55.671875 C 10.328125 -54.960938 9.789062 -54.25 9.25 -53.53125 C 8.71875 -52.8125 8.179688 -52.09375 7.640625 -51.375 C 7.285156 -51.019531 6.972656 -50.640625 6.703125 -50.234375 C 6.441406 -49.835938 6.128906 -49.414062 5.765625 -48.96875 C 5.410156 -48.613281 5.078125 -48.253906 4.765625 -47.890625 C 4.453125 -47.535156 4.113281 -47.179688 3.75 -46.828125 C 3.394531 -46.460938 2.90625 -46.28125 2.28125 -46.28125 C 1.03125 -46.28125 0.316406 -46.953125 0.140625 -48.296875 C -0.046875 -49.640625 0.0390625 -50.664062 0.40625 -51.375 C 0.851562 -52.632812 1.519531 -54.023438 2.40625 -55.546875 C 3.300781 -57.066406 4.375 -58.40625 5.625 -59.5625 C 6.882812 -60.726562 8.1875 -61.3125 9.53125 -61.3125 C 10.15625 -61.3125 10.554688 -61.265625 10.734375 -61.171875 L 11.265625 -61.046875 C 11.628906 -61.046875 12.078125 -61.3125 12.609375 -61.84375 C 12.960938 -62.289062 13.316406 -62.738281 13.671875 -63.1875 C 14.035156 -63.632812 14.394531 -64.082031 14.75 -64.53125 C 15.113281 -64.976562 15.453125 -65.398438 15.765625 -65.796875 C 16.078125 -66.203125 16.410156 -66.628906 16.765625 -67.078125 C 17.128906 -67.523438 17.488281 -67.90625 17.84375 -68.21875 C 18.195312 -68.53125 18.597656 -68.863281 19.046875 -69.21875 C 19.140625 -69.3125 19.320312 -69.359375 19.59375 -69.359375 C 20.300781 -69.359375 20.703125 -69.085938 20.796875 -68.546875 C 21.148438 -67.921875 21.101562 -67.117188 20.65625 -66.140625 C 20.476562 -65.691406 20.253906 -65.265625 19.984375 -64.859375 C 19.722656 -64.460938 19.5 -64.039062 19.3125 -63.59375 C 19.132812 -63.226562 18.910156 -62.84375 18.640625 -62.4375 C 18.378906 -62.039062 18.160156 -61.617188 17.984375 -61.171875 C 16.546875 -58.304688 15.289062 -55.398438 14.21875 -52.453125 C 13.144531 -49.503906 12.296875 -46.460938 11.671875 -43.328125 C 11.398438 -41.984375 11.175781 -40.640625 11 -39.296875 C 10.820312 -37.960938 10.773438 -36.625 10.859375 -35.28125 C 10.859375 -34.832031 10.878906 -34.363281 10.921875 -33.875 C 10.972656 -33.382812 11.269531 -33.050781 11.8125 -32.875 C 11.894531 -32.78125 12.070312 -32.734375 12.34375 -32.734375 C 12.695312 -32.734375 13.363281 -33.15625 14.34375 -34 C 15.332031 -34.851562 16.34375 -35.769531 17.375 -36.75 C 18.40625 -37.738281 19.050781 -38.410156 19.3125 -38.765625 C 20.03125 -39.660156 20.769531 -40.554688 21.53125 -41.453125 C 22.289062 -42.347656 23.03125 -43.242188 23.75 -44.140625 C 24.457031 -45.035156 25.144531 -45.953125 25.8125 -46.890625 C 26.488281 -47.828125 27.1875 -48.742188 27.90625 -49.640625 L 31.53125 -54.0625 C 31.707031 -54.238281 31.929688 -54.328125 32.203125 -54.328125 C 32.378906 -54.328125 32.507812 -54.285156 32.59375 -54.203125 C 32.957031 -53.835938 33.050781 -53.429688 32.875 -52.984375 C 32.78125 -52.628906 32.597656 -52.273438 32.328125 -51.921875 C 31.429688 -50.753906 30.554688 -49.585938 29.703125 -48.421875 C 28.859375 -47.265625 27.988281 -46.0625 27.09375 -44.8125 C 26.207031 -43.644531 25.269531 -42.476562 24.28125 -41.3125 C 23.300781 -40.15625 22.316406 -38.992188 21.328125 -37.828125 C 20.972656 -37.472656 20.640625 -37.140625 20.328125 -36.828125 C 20.015625 -36.515625 19.675781 -36.175781 19.3125 -35.8125 C 18.957031 -35.457031 18.625 -35.097656 18.3125 -34.734375 C 18 -34.378906 17.664062 -34.023438 17.3125 -33.671875 C 16.320312 -32.691406 15.25 -31.929688 14.09375 -31.390625 C 13.550781 -31.117188 13.054688 -30.984375 12.609375 -30.984375 Z M 2.546875 -49.09375 C 2.722656 -49.28125 2.898438 -49.375 3.078125 -49.375 C 3.078125 -49.375 3.171875 -49.460938 3.359375 -49.640625 C 4.066406 -50.535156 4.78125 -51.425781 5.5 -52.3125 C 6.21875 -53.207031 6.929688 -54.101562 7.640625 -55 L 10.0625 -58.625 C 10.0625 -58.625 10.0625 -58.664062 10.0625 -58.75 C 10.0625 -58.84375 10.0625 -58.976562 10.0625 -59.15625 C 9.882812 -59.34375 9.660156 -59.390625 9.390625 -59.296875 C 7.597656 -58.398438 6.078125 -57.125 4.828125 -55.46875 C 3.578125 -53.8125 2.726562 -52.046875 2.28125 -50.171875 L 2.140625 -49.640625 C 2.234375 -49.546875 2.300781 -49.453125 2.34375 -49.359375 C 2.394531 -49.273438 2.460938 -49.1875 2.546875 -49.09375 Z M 2.546875 -49.09375 "/></g></g></g></svg>